<?xml version="1.0" encoding="utf-8"?>
<!-- Generator: Adobe Illustrator 24.1.0, SVG Export Plug-In . SVG Version: 6.00 Build 0)  -->
<svg version="1.1" id="Layer_1" xmlns="http://www.w3.org/2000/svg" xmlns:xlink="http://www.w3.org/1999/xlink" x="0px" y="0px"
	 viewBox="0 0 2000 2000" enable-background="new 0 0 2000 2000" xml:space="preserve">
<rect fill="#FFFFFF" width="2000" height="2000"/>
<g>
	<path fill-rule="evenodd" clip-rule="evenodd" fill="#333333" d="M798.888,847.879l-233.83-52.101v154.318l366.236,81.581
		c25.852,6.917,50.599,31.437,50.599,60.435c0,150.321,0,300.614,0,450.907c0,12.614-17.943,25.54-27.582,22.961
		c-177.42-44.759-354.812-89.546-532.233-134.306c-20.409-5.471-33.364-26.05-33.364-43.115v-236.296l176.343,41.783v114.123
		l250.725,59.471v-189.667c-132.321-31.889-264.671-63.751-396.992-95.641c-22.706-6.066-30.076-31.266-30.076-49.861V607.643
		c0.397-22.365,9.666-30.444,32.23-25.739l377.943,87.676l145.275,33.732c22.762,5.046,37.729,28.744,37.729,46.29v139.039v63.496
		l-183.005-37.956V847.879z"/>
	<path fill-rule="evenodd" clip-rule="evenodd" fill="#999999" d="M1017.128,712.071v860.882l534.501-134.901
		c0,0,58.677-18.198,58.677-84.104s0-284.514,0-284.514s1.757-31.776-20.636-37.758c-22.395-6.009-25.598-6.859-25.598-6.859
		c39.316-18.737,46.233-25.172,46.233-65.764c0-86.74,0-342.085,0-342.085s-5.896-39.374-48.444-27.979
		C1519.285,600.414,1017.128,712.071,1017.128,712.071L1017.128,712.071z M1180.403,861.116v135.015l262.8-66.359
		c0,0,20.863-7.597,20.863-22.082c0-14.457,0-97.256,0-97.256s-2.608-12.189-21.373-11.112
		C1423.899,800.37,1180.403,861.116,1180.403,861.116L1180.403,861.116z M1180.403,1220.096v135.015l262.8-66.359
		c0,0,20.863-7.597,20.863-22.054c0-14.484,0-97.256,0-97.256s-2.608-12.218-21.373-11.141
		C1423.899,1159.378,1180.403,1220.096,1180.403,1220.096L1180.403,1220.096z"/>
	<polygon fill-rule="evenodd" clip-rule="evenodd" fill="#CCCCCC" points="387.666,548.512 998.447,683.923 1580.314,555.343 
		998.447,427.076 	"/>
</g>
</svg>
